<?xml version="1.0" encoding="utf-8"?>
<!-- Generator: Adobe Illustrator 24.2.1, SVG Export Plug-In . SVG Version: 6.00 Build 0)  -->
<svg version="1.1" id="Layer_1" xmlns="http://www.w3.org/2000/svg" xmlns:xlink="http://www.w3.org/1999/xlink" x="0px" y="0px"
	 viewBox="0 0 1208.9 730" style="enable-background:new 0 0 1208.9 730;" xml:space="preserve">
<style type="text/css">
	.st0{fill:#FF7D41;}
	.st1{fill:#5A5A5A;}
	.st2{fill:#808080;}
</style>
<g>
	<g>
		<path class="st0" d="M320,373.1c59.8-1.9,107.2-49.5,107.9-108.6v-50.8h65.8v56.2C492.4,361.3,413,433.4,320,435.4l0,0
			c-94.6-0.6-174.6-73.2-175.9-165.6v-101c-0.1-10.3,6.6-17,16.7-16.9h267.1v61.7l-209.4,0.1c-5.4,0-8.6,3.3-8.6,8.6v41.2
			C210.6,323.4,258.8,372.5,320,373.1L320,373.1z"/>
		<g>
			<rect x="1037.5" y="256.7" class="st1" width="26" height="136.2"/>
			<path class="st1" d="M844.3,392.9V199.2h66.4c60.4,0,92.9,42.7,92.9,96.9c0,55.1-33.6,96.9-93.2,96.9L844.3,392.9L844.3,392.9z
				 M905.7,369.8c46.7,0,71.9-24.5,71.9-73.7c0-50.6-26.6-73.9-70.8-73.9h-36.4v147.6H905.7z"/>
			<path class="st1" d="M1033.9,211.2c0-9.2,7.5-16.7,16.7-16.7s16.7,7.5,16.7,16.7s-7.5,16.7-16.7,16.7
				C1041.3,227.8,1033.9,220.4,1033.9,211.2z"/>
			<rect x="773.1" y="256.7" class="st1" width="26" height="136.2"/>
			<path class="st1" d="M578.8,392.9V199.2h66.4c60.4,0,92.9,42.7,92.9,96.9c0,55.1-33.6,96.9-93.2,96.9L578.8,392.9L578.8,392.9z
				 M640.2,369.8c46.7,0,71.9-24.5,71.9-73.7c0-50.6-26.6-73.9-70.8-73.9h-36.4v147.6H640.2z"/>
			<path class="st1" d="M769.5,211.2c0-9.2,7.5-16.7,16.7-16.7s16.7,7.5,16.7,16.7s-7.5,16.7-16.7,16.7
				C777,227.8,769.5,220.4,769.5,211.2z"/>
		</g>
	</g>
	<g>
		<path class="st2" d="M144.4,514.6h8.9v54.8h28.8v7.8h-37.7V514.6z"/>
		<path class="st2" d="M184.3,545.8c0-18.5,13.9-32.2,31.9-32.2c18,0,31.7,13.7,31.7,32.1c0,18.4-13.7,32.3-31.8,32.3
			C197.9,578.1,184.3,564.1,184.3,545.8z M238.8,545.9c0-13.9-9.6-24.3-22.7-24.3c-13.1,0-22.8,10.3-22.8,24.3
			c0,13.9,9.6,24.3,22.8,24.3C229.2,570.2,238.8,559.8,238.8,545.9z"/>
		<path class="st2" d="M261.5,514.6l14.7,49.5l12.7-41.2h8.3l12.9,41.4l14.7-49.7h9.2l-20,62.6h-8.6L292.8,537l-12.5,40.2h-8.5
			L252,514.6H261.5z"/>
		<path class="st2" d="M352.7,577.2h-8.8v-62.6h38.9v7.8h-30.1V543h25v7.7h-25V577.2z"/>
		<path class="st2" d="M424.1,560.5h-26.3l-5.9,16.7h-9.1l23.2-62.6h10.2l23.5,62.6h-9.6L424.1,560.5z M421.4,553l-10.5-29.2
			L400.5,553H421.4z"/>
		<path class="st2" d="M448.9,514.6h22.3c13.2,0,21,8.2,21,19.1c0,8.8-5.1,15.7-13.5,18.3l15.3,25.2h-10.5l-14-24.1h-11.8v24.1h-8.7
			V514.6z M469.6,545.2c8.5,0,13.6-4.1,13.6-11.3c0-7.6-5.6-11.5-13.6-11.5h-12v22.8H469.6z"/>
		<path class="st2" d="M504.9,514.6h38.6v7.8h-29.8v19.4h25.9v7.8h-25.9v19.9h30.5v7.8h-39.4V514.6z"/>
		<path class="st2" d="M598.3,514.6h22.3c13.2,0,21,8.2,21,19.1c0,8.8-5.1,15.7-13.5,18.3l15.3,25.2h-10.5l-14-24.1H607v24.1h-8.7
			V514.6z M619,545.2c8.5,0,13.6-4.1,13.6-11.3c0-7.6-5.6-11.5-13.6-11.5h-12v22.8H619z"/>
		<path class="st2" d="M654.3,514.6h8.9v62.6h-8.9V514.6z"/>
		<path class="st2" d="M679.2,577.2v-62.6h21.4c19.5,0,30,13.8,30,31.3c0,17.8-10.9,31.3-30.1,31.3H679.2z M699,569.4
			c14.9,0,22.9-7.8,22.9-23.5c0-16.1-8.5-23.5-22.6-23.5h-11.2v47H699z"/>
		<path class="st2" d="M742.9,514.6h38.6v7.8h-29.8v19.4h25.9v7.8h-25.9v19.9h30.5v7.8h-39.4V514.6z"/>
		<path class="st2" d="M810.5,570.1c7.1,0,13.7-2.8,13.7-9.6c0-15.5-33.5-6.4-33.5-28.7c0-11.7,9.2-18.1,20.9-18.1
			c7.1,0,14.8,2.4,20.4,6.8l-4.1,6.3c-4.1-3.3-10.7-5.3-15.9-5.3c-6.6,0-12.6,3.2-12.6,9.6c0,15.2,33.7,5.9,33.7,28.6
			c0,12.3-10,18.4-22.2,18.4c-8.1,0-15.5-2.6-22-7.7l4.1-6.5C798,567.9,804.2,570.1,810.5,570.1z"/>
		<path class="st2" d="M844.7,514.6h8.9v27.2h31.2v-27.2h8.9v62.6h-8.9v-27.7h-31.2v27.7h-8.9V514.6z"/>
		<path class="st2" d="M944.3,560.5H918l-5.9,16.7H903l23.2-62.6h10.2l23.5,62.6h-9.6L944.3,560.5z M941.6,553l-10.5-29.2L920.7,553
			H941.6z"/>
		<path class="st2" d="M969,514.6h22.3c13.2,0,21,8.2,21,19.1c0,8.8-5.1,15.7-13.5,18.3l15.3,25.2h-10.5l-14-24.1h-11.8v24.1H969
			V514.6z M989.8,545.2c8.5,0,13.6-4.1,13.6-11.3c0-7.6-5.6-11.5-13.6-11.5h-12v22.8H989.8z"/>
		<path class="st2" d="M1025.1,514.6h38.6v7.8h-29.8v19.4h25.9v7.8h-25.9v19.9h30.5v7.8h-39.4V514.6z"/>
	</g>
</g>
</svg>
