<svg xmlns="http://www.w3.org/2000/svg" fill="none" viewBox="0 0 128 128">
    <path class="bg" d="M581.1 592H474.9c-6 0-10.9-4.9-10.9-10.9V474.9c0-6 4.9-10.9 10.9-10.9h106.2c6 0 10.9 4.9 10.9 10.9v106.2c0 6-4.9 10.9-10.9 10.9z"/>
    <path class="num" d="M569.7 506.8c-4.5-5.8-10.8-8.7-19-8.7s-14.6 2.9-19 8.6c-4.4 5.8-6.7 12.9-6.7 21.3 0 1.5 0 2.9.2 4.3h-3.9v-33.4H501l-21.2 35.3v13.5h23.9v9.4h17.6v-9.4h6.8v-4.1c1.9 4.1 4.8 7.6 8.4 10.2 4 2.9 8.7 4.3 14.3 4.3 5.6 0 10.3-1.4 14.3-4.3 7.6-5.5 11.4-14.1 11.4-25.7-.1-8.5-2.3-15.6-6.8-21.3z" />
    <style>
        path.bg { fill: #50e3c2; }
        path.num { fill: #fff; }
        @media (prefers-color-scheme: dark) {
            <!-- path.num { fill: #010101; } -->
            path.num { fill: #010101; }
        }
    </style>
</svg>
